<svg width="62" height="73" viewBox="0 0 62 73" fill="none" xmlns="http://www.w3.org/2000/svg">
    <path opacity="0.6"
        d="M52.924 51.6182L30.9949 73L9.076 51.6182C3.26459 45.9464 0 38.2555 0 30.2363C0 22.2172 3.26459 14.5263 9.076 8.85449C14.892 3.18485 22.7778 0 31 0C39.2222 0 47.108 3.18485 52.924 8.85449C58.7354 14.5263 62 22.2172 62 30.2363C62 38.2555 58.7354 45.9464 52.924 51.6182Z"
        fill="#1565c0" />
    <path
        d="M31 54C44.2548 54 55 43.2548 55 30C55 16.7452 44.2548 6 31 6C17.7452 6 7 16.7452 7 30C7 43.2548 17.7452 54 31 54Z"
        fill="#FFE642" />
    <path transform="translate(17, 16) scale(1)"
        d="M7.56938 8.98585H6.8995C6.8995 8.46874 6.8995 8.01617 6.83252 7.56361V6.65866C6.83252 6.62648 6.83252 6.61029 6.84078 6.60211C6.84914 6.59393 6.86585 6.59393 6.8995 6.59393H7.36838H7.83731C8.03825 6.59393 8.30619 6.65866 8.50718 6.78794C8.70813 6.91721 8.84209 7.17577 8.90908 7.43433C8.97606 7.49906 8.97606 7.62834 8.97606 7.75762C8.97606 8.08072 8.90908 8.40401 8.64115 8.66256C8.50718 8.85657 8.30619 8.92112 8.03825 8.98585H7.56938Z"
        fill="#1565c0" />
    <path transform="translate(17, 16) scale(1)" fill-rule="evenodd" clip-rule="evenodd"
        d="M27.0623 0C27.1961 0 27.3301 0 27.3972 0.0647321C27.7321 0.19401 28 0.517113 28 0.905134V18.4888C28 24.1131 24.4498 28.8969 19.4258 30.9656C17.7512 31.6122 15.9427 32 14.0001 32C6.29667 32 0 25.9232 0 18.4888V0.905134C0 0.751674 0.0419177 0.638579 0.0926176 0.502046C0.106005 0.46596 0.119962 0.428385 0.133966 0.387835C0.200948 0.323289 0.334914 0.19401 0.468879 0.129278C0.468879 0.129278 0.535862 0.0647321 0.602893 0.0647321C0.669876 0 0.803841 0 0.937807 0H27.0623ZM5.89472 5.62426L5.82774 5.6888C5.82774 6.78795 5.82774 7.82217 5.76075 8.92113V12.0889C5.76075 12.1211 5.76075 12.1371 5.76897 12.1453C5.77732 12.1535 5.79408 12.1535 5.82774 12.1535H6.69856C6.73222 12.1535 6.74897 12.1535 6.75733 12.1453C6.76554 12.1371 6.76554 12.1211 6.76554 12.0889V11.3778V10.0203C6.76554 9.9881 6.76554 9.97191 6.7738 9.96373C6.78216 9.95554 6.79887 9.95554 6.83253 9.95554H7.5024H7.56939C7.73686 10.1496 7.88754 10.3596 8.03831 10.5696C8.18899 10.7798 8.33976 10.99 8.50719 11.1838C8.60783 11.3132 8.72528 11.4591 8.84268 11.6047C8.95969 11.75 9.07672 11.8951 9.17707 12.0242C9.21552 12.0614 9.23189 12.0772 9.2515 12.0839C9.26613 12.0889 9.28251 12.0889 9.31104 12.0889H10.3159H10.3828C10.4498 12.0889 10.3828 12.0242 10.3828 12.0242C10.2573 11.9033 10.1581 11.7571 10.0522 11.6014C9.9885 11.5076 9.92242 11.4103 9.84689 11.3131C9.59363 11.0279 9.36695 10.7171 9.1334 10.3968C8.99625 10.2089 8.85677 10.0175 8.70815 9.82627C8.67159 9.79092 8.65497 9.77493 8.65834 9.76767C8.6611 9.76153 8.67772 9.76153 8.70815 9.76153C9.17707 9.63225 9.51198 9.30915 9.71293 8.92113C9.91388 8.59803 9.98086 8.27474 9.98086 7.95145C9.98086 7.62835 9.98086 7.30506 9.84689 6.98177C9.71293 6.59394 9.51198 6.33538 9.24405 6.07682C8.8421 5.81827 8.37323 5.62426 7.9043 5.62426H5.89472ZM2.88041 18.4888C2.88041 23.9193 7.1005 28.4444 12.5263 29.091V17.7777H2.88041V18.4888ZM21.4355 25.3413C21.7033 25.2768 21.9713 25.1475 22.1723 25.0182C22.1723 24.9935 22.1821 24.9782 22.1905 24.9652C22.2039 24.944 22.2137 24.9288 22.1723 24.889C22.0717 24.7597 21.988 24.6302 21.9042 24.5009C21.8205 24.3717 21.7368 24.2424 21.6364 24.1131H21.5695C21.5359 24.1455 21.4855 24.1616 21.4353 24.1778C21.3851 24.194 21.3349 24.2102 21.3015 24.2424C20.8996 24.4364 20.4306 24.5009 19.9617 24.4364C19.4258 24.3071 19.024 24.1131 18.689 23.7253C18.2201 23.2727 18.0191 22.6263 18.0862 21.9797C18.1531 21.3333 18.4881 20.8162 19.1579 20.2989C19.5598 20.0404 19.9617 19.9111 20.4306 19.9111C20.7656 19.9111 21.1005 19.9758 21.3684 20.1051C21.3684 20.1696 21.4355 20.1696 21.4355 20.1051L21.8373 19.3292C21.8662 19.3013 21.8826 19.2855 21.8812 19.2714C21.8794 19.2526 21.8466 19.2368 21.7704 19.2C21.2345 18.9414 20.6316 18.8767 20.0288 18.9414C19.6938 18.9414 19.3589 19.0707 19.024 19.2C18.622 19.394 18.2871 19.6525 18.0191 19.9111C17.7512 20.2344 17.4832 20.5577 17.3493 20.9455C17.1483 21.4626 17.0814 21.9797 17.1483 22.497C17.1483 22.8849 17.2823 23.2081 17.4163 23.5312C17.5503 23.9193 17.8182 24.2424 18.0862 24.5009C18.4211 24.889 18.756 25.0828 19.2249 25.2768C19.5598 25.4061 19.9617 25.4708 20.4306 25.4708H20.6986C20.9206 25.4708 21.0965 25.4263 21.3028 25.3743L21.4355 25.3413ZM15.4737 14.9334H25.1197V2.77976H15.4737V14.9334Z"
        fill="#1565c0" />
</svg>